<svg width="137" height="24" viewBox="0 0 137 24" fill="none" xmlns="http://www.w3.org/2000/svg">
<path fill-rule="evenodd" clip-rule="evenodd" d="M110.824 1.00359C110.51 0.79474 110.14 0.683644 109.763 0.684299C109.51 0.684279 109.26 0.734444 109.027 0.831886C108.793 0.929328 108.582 1.07211 108.404 1.25194C108.227 1.43177 108.087 1.64508 107.992 1.87948C107.898 2.11389 107.85 2.36473 107.854 2.61746C107.858 2.99498 107.973 3.36285 108.186 3.67473C108.399 3.98661 108.699 4.22855 109.049 4.37006C109.399 4.51157 109.783 4.54632 110.153 4.46994C110.523 4.39356 110.862 4.20946 111.127 3.94083C111.392 3.67221 111.572 3.33108 111.644 2.96042C111.716 2.58976 111.676 2.20615 111.53 1.85793C111.384 1.50971 111.139 1.21244 110.824 1.00359ZM108.224 6.3741V17.8223H111.309V6.3741H108.224ZM104.496 6.37506H106.803V9.11714H104.496V13.9158C104.496 14.9166 104.962 15.2422 105.847 15.2422C106.168 15.2461 106.489 15.2151 106.803 15.1497V17.7204C106.244 17.9247 105.65 18.019 105.055 17.998C102.82 17.998 101.422 16.6716 101.422 14.4573V9.12399H99.3652V6.38192H99.9479C101.158 6.38192 101.717 5.59014 101.717 4.56529V2.9509H104.513L104.496 6.37506ZM50.6875 18.1862C53.505 18.1862 55.3216 16.5307 55.9043 14.553L53.337 13.7818C52.9634 14.8066 52.1717 15.5298 50.7286 15.5298C49.9992 15.5618 49.2863 15.3066 48.7429 14.819C48.1995 14.3313 47.8689 13.6501 47.822 12.9214H56.0208C56.0208 12.9095 56.0238 12.872 56.0282 12.8155L56.0282 12.8154C56.0417 12.6438 56.0688 12.2977 56.0688 11.9651C56.0688 8.2839 53.9472 6.02512 50.4064 6.02512C47.4724 6.02512 44.7715 8.40044 44.7715 12.0577C44.7715 15.9274 47.541 18.1862 50.6875 18.1862ZM50.4544 8.54097C52.2231 8.54097 52.9703 9.65837 53.0148 10.7998H47.8906C47.948 10.1668 48.2458 9.57993 48.7227 9.15979C49.1996 8.73966 49.8193 8.51821 50.4544 8.54097ZM35.8407 19.3153C35.3461 18.9163 35.0173 18.3478 34.918 17.7202L32.1211 18.4639C32.4501 20.6542 34.5444 22.6113 37.6909 22.6113C41.9857 22.6113 43.6995 19.7459 43.6995 16.6028V6.37482H40.7175V7.7253C40.3233 6.95752 39.2745 6.16574 37.4579 6.16574C34.3113 6.16574 32.1211 8.72958 32.1211 11.7561C32.1211 14.9712 34.4039 17.3226 37.4579 17.3226C39.11 17.3226 40.1828 16.6028 40.6489 15.8555V16.6885C40.6489 18.8992 39.5521 19.8795 37.595 19.8795C36.9605 19.9154 36.3353 19.7143 35.8407 19.3153ZM37.9926 8.86668C39.4836 8.86668 40.6935 9.98751 40.6935 11.7561C40.6935 13.5282 39.5932 14.6696 37.9926 14.6696C36.3919 14.6696 35.2505 13.5248 35.2505 11.7561C35.2505 9.98751 36.5016 8.86668 37.9926 8.86668ZM60.4012 17.8232H57.3164V6.37506H60.3258V7.79751C61.0113 6.60813 62.3824 6.08371 63.6335 6.08371C66.4749 6.08371 67.7774 8.10942 67.7774 10.6253V17.8232H64.6926V11.1497C64.6926 9.8712 64.0619 8.86692 62.5709 8.86692C61.2204 8.86692 60.4287 9.91576 60.4287 11.2457L60.4012 17.8232ZM74.75 18.1862C77.5709 18.1862 79.3875 16.5307 79.9702 14.553L77.3824 13.7818C77.0122 14.8066 76.217 15.5298 74.774 15.5298C74.0477 15.5564 73.3396 15.2988 72.8001 14.8118C72.2607 14.3248 71.9322 13.6467 71.8845 12.9214H80.0868C80.0868 12.9095 80.0895 12.872 80.0936 12.8155C80.1061 12.6439 80.1313 12.2977 80.1313 11.9651C80.1313 8.2839 78.0131 6.02512 74.4724 6.02512C71.5349 6.02512 68.834 8.40044 68.834 12.0577C68.834 15.9274 71.6069 18.1862 74.75 18.1862ZM74.5169 8.54097C76.289 8.54097 77.0328 9.65837 77.0808 10.7998H71.9565C72.0123 10.1668 72.3092 9.57943 72.7857 9.15906C73.2622 8.73869 73.8819 8.51742 74.5169 8.54097ZM88.354 9.44901C88.0471 9.38756 87.7348 9.35656 87.4217 9.35646C85.8382 9.35646 84.4637 10.1242 84.4637 12.5955V17.8226H81.3789V6.37446H84.3849V8.08825C85.0704 6.57669 86.6677 6.29562 87.648 6.29562C87.8886 6.29897 88.1288 6.31499 88.3678 6.34361L88.354 9.44901ZM94.9453 10.8232L92.1278 11.2448C90.2186 11.5225 88.7036 12.681 88.707 14.7307C88.707 16.5233 90.198 18.1789 92.6453 18.1789C94.3454 18.1789 95.4388 17.3734 96.0215 16.4651C96.0205 16.9246 96.0595 17.3833 96.1381 17.8361H98.9795C98.8905 17.2346 98.8435 16.6276 98.839 16.0195V10.3845C98.839 8.0846 97.4885 6.02805 93.8553 6.02805C90.7807 6.02805 89.1286 8.00577 88.9401 9.7984L91.6822 10.3811C91.7747 9.38023 92.5699 8.51648 93.8724 8.51648C95.1749 8.51648 95.8056 9.19171 95.8056 10.0075C95.8056 10.4051 95.5965 10.7307 94.9453 10.8232ZM95.809 12.681V13.1986C95.809 15.2277 94.6025 15.855 93.3 15.855C92.2992 15.855 91.809 15.214 91.809 14.5285C91.809 13.6442 92.4397 13.1986 93.2315 13.082L95.809 12.681ZM124.575 12.1057C124.575 15.6224 121.991 18.1862 118.567 18.1862C115.143 18.1862 112.555 15.6224 112.555 12.1057C112.555 8.58896 115.143 6.02512 118.567 6.02512C121.991 6.02512 124.575 8.56839 124.575 12.1057ZM121.49 12.1057C121.49 9.93943 120.092 8.84602 118.58 8.84602C117.069 8.84602 115.667 9.93943 115.667 12.1057C115.667 14.2719 117.065 15.3653 118.58 15.3653C120.095 15.3653 121.477 14.2719 121.477 12.1057H121.49ZM125.824 17.8232H128.909L128.936 11.2457C128.936 9.91576 129.728 8.86692 131.079 8.86692C132.57 8.86692 133.2 9.8712 133.2 11.1497V17.8232H136.285V10.6253C136.285 8.10942 134.979 6.08371 132.138 6.08371C130.904 6.08371 129.516 6.60813 128.83 7.79751V6.37506H125.824V17.8232Z" fill="white"/>
<path fill-rule="evenodd" clip-rule="evenodd" d="M4.94097 14.4113C4.60854 13.4288 4.48427 12.3879 4.5761 11.3548C4.69605 10.0134 5.17631 8.72935 5.96608 7.63848C6.75585 6.54761 7.82577 5.69046 9.06267 5.1577C10.2996 4.62494 11.6575 4.43638 12.9927 4.61196C14.328 4.78754 15.591 5.32073 16.6481 6.15514C16.6631 6.16639 16.6802 6.17453 16.6984 6.17908C16.7165 6.18363 16.7355 6.18449 16.754 6.18161C16.7725 6.17874 16.7903 6.17218 16.8062 6.16234C16.8222 6.1525 16.836 6.13956 16.8469 6.12429L19.1468 2.66928C19.1855 2.60983 19.2004 2.53791 19.1883 2.46797C19.1762 2.39804 19.1381 2.33526 19.0817 2.29225C17.6006 1.2172 15.8936 0.494532 14.0908 0.17934C12.288 -0.135851 10.4371 -0.0352432 8.67909 0.473493C6.9211 0.98223 5.30248 1.88566 3.94665 3.11491C2.59081 4.34416 1.53355 5.86676 0.85549 7.56664C0.177425 9.26651 -0.103546 11.0988 0.0339988 12.9237C0.171544 14.7487 0.723974 16.5181 1.64917 18.0971C2.57436 19.6762 3.8479 21.0231 5.37266 22.0352C6.89743 23.0474 8.63318 23.698 10.4476 23.9375C10.4992 23.9441 10.5517 23.936 10.5989 23.9142C10.6462 23.8923 10.6864 23.8577 10.7149 23.8141L13.457 19.701C13.4707 19.6802 13.4785 19.656 13.4795 19.6311C13.4805 19.6062 13.4747 19.5815 13.4627 19.5596C13.4507 19.5378 13.433 19.5196 13.4115 19.5071C13.3899 19.4945 13.3654 19.4881 13.3405 19.4885H12.0208C10.9836 19.4887 9.95776 19.2731 9.00848 18.8552C8.0592 18.4373 7.2073 17.8264 6.50702 17.0613C5.80674 16.2963 5.27341 15.3938 4.94097 14.4113ZM22.1498 18.508C23.1413 16.956 23.7628 15.1969 23.9664 13.3666C24.006 13.0096 23.9697 12.6482 23.8601 12.3062C23.7505 11.9641 23.5699 11.649 23.3302 11.3815C23.0905 11.114 22.797 10.9 22.469 10.7536C22.141 10.6072 21.7858 10.5317 21.4266 10.532H14.071C14.0254 10.5315 13.9804 10.5426 13.9403 10.5642C13.9002 10.5858 13.8661 10.6171 13.8413 10.6554L11.6339 13.9698C11.6202 13.9907 11.6124 14.0148 11.6114 14.0397C11.6104 14.0646 11.6162 14.0893 11.6282 14.1112C11.6402 14.133 11.6579 14.1512 11.6795 14.1638C11.701 14.1763 11.7256 14.1827 11.7505 14.1824H19.0787C19.1036 14.182 19.1281 14.1884 19.1497 14.2009C19.1712 14.2135 19.1889 14.2317 19.2009 14.2535C19.2129 14.2754 19.2187 14.3001 19.2177 14.325C19.2167 14.3499 19.2089 14.374 19.1952 14.3949L12.8644 23.9099C12.8625 23.9189 12.8625 23.9282 12.8644 23.9373C12.864 23.9452 12.8651 23.9532 12.8679 23.9606C12.8706 23.9681 12.8748 23.9749 12.8802 23.9807C12.8857 23.9865 12.8923 23.9911 12.8996 23.9942C12.9069 23.9974 12.9148 23.999 12.9227 23.999H12.9638C13.1318 23.9887 13.3066 23.9716 13.4746 23.951L13.7625 23.9133L14.047 23.8687L14.3554 23.8139L14.592 23.7659L14.9347 23.6836L15.1506 23.6288L15.4249 23.55C15.4507 23.5419 15.4769 23.5338 15.5033 23.5257C15.5894 23.4992 15.6785 23.4717 15.7676 23.4403C16.6855 23.1497 17.5639 22.7468 18.3829 22.2406C18.4548 22.1995 18.5234 22.1549 18.592 22.1104C19.291 21.6528 19.9411 21.1244 20.532 20.5337C20.7616 20.304 20.9776 20.071 21.1832 19.8276C21.2246 19.7803 21.274 19.7193 21.3169 19.6663C21.3486 19.6272 21.3768 19.5924 21.3957 19.5705C21.4267 19.5348 21.456 19.4974 21.4848 19.4607C21.4974 19.4446 21.51 19.4286 21.5225 19.4129C21.5328 19.4011 21.542 19.3885 21.55 19.3752C21.6391 19.262 21.7248 19.1489 21.807 19.0324C21.8702 18.9278 21.9367 18.8289 22.0034 18.7298C22.0526 18.6568 22.1018 18.5836 22.1498 18.508Z" fill="#FF0037"/>
</svg>
